<svg width="231" height="52" viewBox="0 0 231 52" fill="none" xmlns="http://www.w3.org/2000/svg">
<g filter="url(#filter0_d_47_75)">
<path d="M20.776 28.104V33H4.264V2.52H9.88V28.968L9.064 28.104H20.776ZM35.0316 13.656H29.1276C28.7436 13.656 28.5516 13.848 28.5516 14.232V28.248C28.5516 28.632 28.7436 28.824 29.1276 28.824H35.0316C35.4156 28.824 35.6076 28.632 35.6076 28.248V14.232C35.6076 13.848 35.4156 13.656 35.0316 13.656ZM23.0796 27.048V15.432C23.0796 13.128 23.6396 11.496 24.7596 10.536C25.8796 9.544 27.7036 9.048 30.2316 9.048H33.9276C36.4556 9.048 38.2796 9.544 39.3996 10.536C40.5196 11.496 41.0796 13.128 41.0796 15.432V27.048C41.0796 29.32 40.5196 30.952 39.3996 31.944C38.2796 32.936 36.4556 33.432 33.9276 33.432H30.2316C27.7036 33.432 25.8796 32.936 24.7596 31.944C23.6396 30.952 23.0796 29.32 23.0796 27.048ZM55.2366 33.096H45.1086L45.0606 28.728H55.0926C55.4766 28.728 55.6686 28.536 55.6686 28.152V23.784C55.6686 23.4 55.4766 23.208 55.0926 23.208H51.1566C48.8206 23.208 47.1406 22.776 46.1166 21.912C45.1246 21.048 44.6286 19.528 44.6286 17.352V15.24C44.6286 12.968 45.1566 11.368 46.2126 10.44C47.2686 9.512 48.9646 9.048 51.3006 9.048L59.7486 9.096V13.656H50.6766C50.2926 13.656 50.1006 13.848 50.1006 14.232V18.36C50.1006 18.744 50.2926 18.936 50.6766 18.936H54.5646C56.9326 18.936 58.5966 19.368 59.5566 20.232C60.5486 21.064 61.0446 22.568 61.0446 24.744V27.624C61.0446 29.608 60.5806 31.016 59.6526 31.848C58.7246 32.68 57.2526 33.096 55.2366 33.096ZM76.5753 9.48V13.704H70.6713L71.1513 13.224V27.864C71.1513 28.248 71.3433 28.44 71.7273 28.44H76.5753V33H72.8793C70.3833 33 68.5593 32.52 67.4073 31.56C66.2873 30.568 65.7273 28.936 65.7273 26.664V13.224L66.2073 13.704H63.1353V9.48H66.2073L65.7273 9.96V3.48H71.1513V9.96L70.6713 9.48H76.5753ZM93.8665 33H88.4425V9.48H93.8665V33ZM93.8665 5.736H88.4425V0.887999H93.8665V5.736ZM109.054 9.048H111.262C113.278 9.048 114.75 9.464 115.678 10.296C116.606 11.128 117.07 12.552 117.07 14.568V33H111.646V14.04C111.646 13.656 111.454 13.464 111.07 13.464H105.31C104.926 13.464 104.734 13.656 104.734 14.04L104.782 33H99.3576L99.3096 9.48H104.158L104.734 13.464L104.398 14.088C104.398 12.456 104.766 11.208 105.502 10.344C106.238 9.48 107.422 9.048 109.054 9.048ZM139.94 33.096H129.812L129.764 28.728H139.796C140.18 28.728 140.372 28.536 140.372 28.152V23.784C140.372 23.4 140.18 23.208 139.796 23.208H135.86C133.524 23.208 131.844 22.776 130.82 21.912C129.828 21.048 129.332 19.528 129.332 17.352V15.24C129.332 12.968 129.86 11.368 130.916 10.44C131.972 9.512 133.668 9.048 136.004 9.048L144.452 9.096V13.656H135.38C134.996 13.656 134.804 13.848 134.804 14.232V18.36C134.804 18.744 134.996 18.936 135.38 18.936H139.268C141.636 18.936 143.3 19.368 144.26 20.232C145.252 21.064 145.748 22.568 145.748 24.744V27.624C145.748 29.608 145.284 31.016 144.356 31.848C143.428 32.68 141.956 33.096 139.94 33.096ZM154.75 42.12H149.278V9.48H154.126L154.75 13.464L154.51 14.088C154.51 12.456 154.862 11.208 155.566 10.344C156.302 9.48 157.454 9.048 159.022 9.048H161.23C163.246 9.048 164.718 9.464 165.646 10.296C166.574 11.128 167.038 12.552 167.038 14.568V27.288C167.038 29.464 166.542 30.984 165.55 31.848C164.59 32.712 162.926 33.128 160.558 33.096L154.75 33.048V42.12ZM154.75 14.04V29.256L154.126 28.632L161.086 28.68C161.47 28.68 161.662 28.488 161.662 28.104V14.04C161.662 13.656 161.47 13.464 161.086 13.464H155.326C154.942 13.464 154.75 13.656 154.75 14.04ZM178.07 33.432H176.246C174.262 33.432 172.79 33.016 171.83 32.184C170.902 31.32 170.438 29.896 170.438 27.912V24.84C170.438 22.664 170.934 21.16 171.926 20.328C172.918 19.464 174.582 19.032 176.918 19.032H182.966V22.92H176.39C176.006 22.92 175.814 23.112 175.814 23.496V28.44C175.814 28.824 176.006 29.016 176.39 29.016H182.342V14.568C182.342 14.184 182.15 13.992 181.766 13.992H171.974V9.432H181.19C183.558 9.4 185.254 9.848 186.278 10.776C187.302 11.704 187.814 13.304 187.814 15.576V33H182.918L182.342 29.016L182.63 28.392C182.63 29.992 182.278 31.24 181.574 32.136C180.87 33 179.702 33.432 178.07 33.432ZM206.274 33.432H199.122C196.594 33.432 194.77 32.936 193.65 31.944C192.53 30.952 191.97 29.32 191.97 27.048V15.432C191.97 13.128 192.53 11.496 193.65 10.536C194.77 9.544 196.594 9.048 199.122 9.048H206.274V13.656H198.018C197.634 13.656 197.442 13.848 197.442 14.232V28.248C197.442 28.632 197.634 28.824 198.018 28.824H206.274V33.432ZM225.879 33.288H216.327C213.799 33.288 211.975 32.808 210.855 31.848C209.735 30.856 209.175 29.224 209.175 26.952V15.096C209.175 12.792 209.655 11.208 210.615 10.344C211.575 9.48 213.223 9.048 215.559 9.048H220.023C222.391 9.048 224.055 9.48 225.015 10.344C226.007 11.208 226.503 12.792 226.503 15.096V24.024H213.975V20.136H221.127V14.04C221.127 13.656 220.951 13.464 220.599 13.464H215.175C214.791 13.464 214.599 13.656 214.599 14.04V28.152C214.599 28.536 214.791 28.728 215.175 28.728H225.879V33.288Z" fill="#E49F97"/>
</g>
<defs>
<filter id="filter0_d_47_75" x="0.263916" y="0.888" width="230.239" height="50.232" filterUnits="userSpaceOnUse" color-interpolation-filters="sRGB">
<feFlood flood-opacity="0" result="BackgroundImageFix"/>
<feColorMatrix in="SourceAlpha" type="matrix" values="0 0 0 0 0 0 0 0 0 0 0 0 0 0 0 0 0 0 127 0" result="hardAlpha"/>
<feOffset dy="5"/>
<feGaussianBlur stdDeviation="2"/>
<feComposite in2="hardAlpha" operator="out"/>
<feColorMatrix type="matrix" values="0 0 0 0 0 0 0 0 0 0 0 0 0 0 0 0 0 0 0.25 0"/>
<feBlend mode="normal" in2="BackgroundImageFix" result="effect1_dropShadow_47_75"/>
<feBlend mode="normal" in="SourceGraphic" in2="effect1_dropShadow_47_75" result="shape"/>
</filter>
</defs>
</svg>
