<svg width="8" height="31" viewBox="0 0 8 31" fill="none" xmlns="http://www.w3.org/2000/svg">
<path d="M8 15.5C8 13.3687 6.2 11.625 4 11.625C1.8 11.625 8.46145e-07 13.3687 7.52985e-07 15.5C6.59825e-07 17.6313 1.8 19.375 4 19.375C6.2 19.375 8 17.6313 8 15.5ZM8 27.125C8 24.9937 6.2 23.25 4 23.25C1.8 23.25 3.38e-07 24.9937 2.4484e-07 27.125C1.5168e-07 29.2563 1.8 31 4 31C6.2 31 8 29.2563 8 27.125ZM8 3.875C8 1.74375 6.2 -7.86805e-08 4 -1.74846e-07C1.8 -2.71011e-07 1.35429e-06 1.74375 1.26113e-06 3.875C1.16797e-06 6.00625 1.8 7.75 4 7.75C6.2 7.75 8 6.00625 8 3.875Z" fill="black"/>
</svg>
